<mxfile host="65bd71144e">
    <diagram id="Mqwbk-MZ-vGED0RpUHib" name="Page-1">
        <mxGraphModel dx="1072" dy="563" grid="1" gridSize="10" guides="1" tooltips="1" connect="1" arrows="1" fold="1" page="1" pageScale="1" pageWidth="850" pageHeight="1100" math="0" shadow="0">
            <root>
                <mxCell id="0"/>
                <mxCell id="1" parent="0"/>
                <mxCell id="2" value="User" style="swimlane;whiteSpace=wrap;html=1;" parent="1" vertex="1">
                    <mxGeometry x="120" y="40" width="200" height="600" as="geometry"/>
                </mxCell>
                <mxCell id="3" value="" style="ellipse;html=1;shape=startState;fillColor=#000000;strokeColor=#ff0000;" parent="2" vertex="1">
                    <mxGeometry x="85" y="40" width="30" height="30" as="geometry"/>
                </mxCell>
                <mxCell id="4" value="" style="edgeStyle=orthogonalEdgeStyle;html=1;verticalAlign=bottom;endArrow=open;endSize=8;strokeColor=#ff0000;" parent="2" source="3" edge="1">
                    <mxGeometry relative="1" as="geometry">
                        <mxPoint x="100" y="110" as="targetPoint"/>
                    </mxGeometry>
                </mxCell>
                <mxCell id="5" value="Pilih fitur kategori peralatan" style="rounded=1;whiteSpace=wrap;html=1;" parent="2" vertex="1">
                    <mxGeometry x="50" y="110" width="100" height="50" as="geometry"/>
                </mxCell>
                <mxCell id="26" value="" style="edgeStyle=none;html=1;" parent="2" source="6" target="25" edge="1">
                    <mxGeometry relative="1" as="geometry"/>
                </mxCell>
                <mxCell id="6" value="Masukkan nama kategori" style="rounded=1;whiteSpace=wrap;html=1;" parent="2" vertex="1">
                    <mxGeometry x="36" y="200" width="130" height="50" as="geometry"/>
                </mxCell>
                <mxCell id="28" value="" style="edgeStyle=none;html=1;" parent="2" source="25" target="27" edge="1">
                    <mxGeometry relative="1" as="geometry"/>
                </mxCell>
                <mxCell id="25" value="Pilih status" style="rounded=1;whiteSpace=wrap;html=1;" parent="2" vertex="1">
                    <mxGeometry x="35" y="290" width="130" height="50" as="geometry"/>
                </mxCell>
                <mxCell id="27" value="Masukkan deskripsi kategori (optional)" style="rounded=1;whiteSpace=wrap;html=1;" parent="2" vertex="1">
                    <mxGeometry x="35" y="380" width="130" height="50" as="geometry"/>
                </mxCell>
                <mxCell id="7" value="Sistem" style="swimlane;whiteSpace=wrap;html=1;" parent="1" vertex="1">
                    <mxGeometry x="320" y="40" width="210" height="600" as="geometry"/>
                </mxCell>
                <mxCell id="8" value="Menampilkan halaman kategori peralatan" style="rounded=1;whiteSpace=wrap;html=1;" parent="7" vertex="1">
                    <mxGeometry x="50" y="110" width="100" height="50" as="geometry"/>
                </mxCell>
                <mxCell id="9" value="" style="edgeStyle=none;html=1;" parent="7" source="10" target="14" edge="1">
                    <mxGeometry relative="1" as="geometry"/>
                </mxCell>
                <mxCell id="21" value="Ya" style="edgeLabel;html=1;align=center;verticalAlign=middle;resizable=0;points=[];" parent="9" vertex="1" connectable="0">
                    <mxGeometry x="0.0171" y="1" relative="1" as="geometry">
                        <mxPoint as="offset"/>
                    </mxGeometry>
                </mxCell>
                <mxCell id="23" style="edgeStyle=none;html=1;entryX=1;entryY=0.5;entryDx=0;entryDy=0;exitX=1.004;exitY=0.5;exitDx=0;exitDy=0;exitPerimeter=0;" parent="7" source="10" target="8" edge="1">
                    <mxGeometry relative="1" as="geometry">
                        <Array as="points">
                            <mxPoint x="170" y="405"/>
                            <mxPoint x="170" y="225"/>
                            <mxPoint x="170" y="135"/>
                        </Array>
                    </mxGeometry>
                </mxCell>
                <mxCell id="24" value="Tidak" style="edgeLabel;html=1;align=center;verticalAlign=middle;resizable=0;points=[];" parent="23" vertex="1" connectable="0">
                    <mxGeometry x="0.2813" y="-2" relative="1" as="geometry">
                        <mxPoint y="21" as="offset"/>
                    </mxGeometry>
                </mxCell>
                <mxCell id="10" value="Validasi data" style="html=1;whiteSpace=wrap;aspect=fixed;shape=isoRectangle;" parent="7" vertex="1">
                    <mxGeometry x="50" y="375" width="100" height="60" as="geometry"/>
                </mxCell>
                <mxCell id="13" value="" style="edgeStyle=none;html=1;" parent="7" source="14" target="16" edge="1">
                    <mxGeometry relative="1" as="geometry"/>
                </mxCell>
                <mxCell id="14" value="Menyimpan data kategori peralatan" style="rounded=1;whiteSpace=wrap;html=1;" parent="7" vertex="1">
                    <mxGeometry x="40" y="475" width="120" height="50" as="geometry"/>
                </mxCell>
                <mxCell id="16" value="" style="ellipse;html=1;shape=endState;fillColor=#000000;strokeColor=#ff0000;" parent="7" vertex="1">
                    <mxGeometry x="85" y="555" width="30" height="30" as="geometry"/>
                </mxCell>
                <mxCell id="17" value="" style="endArrow=classic;html=1;exitX=1;exitY=0.5;exitDx=0;exitDy=0;entryX=0;entryY=0.5;entryDx=0;entryDy=0;" parent="1" source="5" target="8" edge="1">
                    <mxGeometry width="50" height="50" relative="1" as="geometry">
                        <mxPoint x="450" y="200" as="sourcePoint"/>
                        <mxPoint x="350" y="175" as="targetPoint"/>
                    </mxGeometry>
                </mxCell>
                <mxCell id="22" style="edgeStyle=none;html=1;entryX=0.5;entryY=0;entryDx=0;entryDy=0;exitX=0.5;exitY=1;exitDx=0;exitDy=0;" parent="1" source="8" target="6" edge="1">
                    <mxGeometry relative="1" as="geometry">
                        <Array as="points">
                            <mxPoint x="420" y="220"/>
                            <mxPoint x="220" y="220"/>
                        </Array>
                    </mxGeometry>
                </mxCell>
                <mxCell id="29" value="" style="edgeStyle=none;html=1;" parent="1" source="27" target="10" edge="1">
                    <mxGeometry relative="1" as="geometry"/>
                </mxCell>
            </root>
        </mxGraphModel>
    </diagram>
</mxfile>